<svg xmlns="http://www.w3.org/2000/svg" height="40px" viewBox="0 -960 960 960" width="40px" fill="#000000"><path d="M120-160v-100q0-36.67 18.5-64.17T186.67-366q65.33-30.33 127.66-45.5 62.34-15.17 125.67-15.17 24 0 47 2.17t47 6.5q-4.67 58 21.33 109.5t76 81.83V-160H120ZM760-22l-60-60v-186q-44-13-72-49.5T600-402q0-58 41-99t99-41q58 0 99 41t41 99q0 45-25.5 80T790-272l50 50-60 60 60 60-80 80ZM440-493.33q-64 0-108.67-44.67-44.66-44.67-44.66-108.67t44.66-108.66Q376-800 440-800t108.67 44.67q44.66 44.66 44.66 108.66T548.67-538Q504-493.33 440-493.33Zm328.5 99.83Q780-405 780-422t-11.5-28.5Q757-462 740-462t-28.5 11.5Q700-439 700-422t11.5 28.5Q723-382 740-382t28.5-11.5Z"/></svg>